<svg width="37" height="18" viewBox="0 0 37 18" fill="none" xmlns="http://www.w3.org/2000/svg">
<path d="M10.9326 6.4929C10.8796 6.02225 10.6608 5.65767 10.2764 5.39915C9.8919 5.13731 9.408 5.00639 8.82466 5.00639C8.40705 5.00639 8.04578 5.07268 7.74086 5.20526C7.43593 5.33452 7.19895 5.51349 7.02992 5.74219C6.8642 5.96757 6.78134 6.22443 6.78134 6.51278C6.78134 6.75473 6.83768 6.96354 6.95037 7.1392C7.06638 7.31487 7.21718 7.46236 7.40279 7.58168C7.59171 7.69768 7.79389 7.79545 8.00932 7.875C8.22476 7.95123 8.43191 8.0142 8.63077 8.06392L9.62509 8.32244C9.9499 8.40199 10.283 8.50971 10.6244 8.6456C10.9658 8.78149 11.2823 8.96046 11.574 9.18253C11.8656 9.40459 12.1009 9.67969 12.2799 10.0078C12.4622 10.3359 12.5534 10.7287 12.5534 11.1861C12.5534 11.7628 12.4042 12.2749 12.1059 12.7223C11.8109 13.1697 11.3817 13.5227 10.8183 13.7812C10.2581 14.0398 9.58034 14.169 8.78489 14.169C8.02258 14.169 7.36302 14.0481 6.8062 13.8061C6.24938 13.5642 5.81354 13.2211 5.49867 12.777C5.1838 12.3295 5.0098 11.7992 4.97665 11.1861H6.51784C6.54767 11.554 6.66699 11.8606 6.8758 12.1058C7.08792 12.3478 7.35804 12.5284 7.68617 12.6477C8.01761 12.7637 8.38053 12.8217 8.77495 12.8217C9.20913 12.8217 9.59526 12.7538 9.93333 12.6179C10.2747 12.4787 10.5432 12.2865 10.7387 12.0412C10.9343 11.7926 11.032 11.5026 11.032 11.1712C11.032 10.8696 10.9459 10.6226 10.7735 10.4304C10.6045 10.2382 10.3741 10.0791 10.0825 9.95312C9.79412 9.82718 9.46766 9.71615 9.10307 9.62003L7.89995 9.2919C7.08461 9.06984 6.4383 8.74337 5.96103 8.3125C5.48707 7.88163 5.25009 7.31155 5.25009 6.60227C5.25009 6.01562 5.40918 5.50355 5.72736 5.06605C6.04554 4.62855 6.47641 4.28883 7.01998 4.04688C7.56354 3.80161 8.1767 3.67898 8.85946 3.67898C9.54886 3.67898 10.157 3.79995 10.684 4.0419C11.2143 4.28385 11.632 4.61695 11.9369 5.04119C12.2418 5.46212 12.4009 5.94602 12.4142 6.4929H10.9326ZM17.4864 14.1541C16.7705 14.1541 16.1457 13.9901 15.6121 13.6619C15.0785 13.3338 14.6642 12.8748 14.3692 12.2848C14.0742 11.6948 13.9268 11.0054 13.9268 10.2166C13.9268 9.42448 14.0742 8.73177 14.3692 8.13849C14.6642 7.54522 15.0785 7.08452 15.6121 6.75639C16.1457 6.42827 16.7705 6.2642 17.4864 6.2642C18.2023 6.2642 18.8271 6.42827 19.3607 6.75639C19.8943 7.08452 20.3086 7.54522 20.6036 8.13849C20.8986 8.73177 21.0461 9.42448 21.0461 10.2166C21.0461 11.0054 20.8986 11.6948 20.6036 12.2848C20.3086 12.8748 19.8943 13.3338 19.3607 13.6619C18.8271 13.9901 18.2023 14.1541 17.4864 14.1541ZM17.4914 12.9062C17.9554 12.9062 18.3399 12.7836 18.6448 12.5384C18.9497 12.2931 19.1751 11.9666 19.3209 11.5589C19.4701 11.1513 19.5447 10.7022 19.5447 10.2116C19.5447 9.72443 19.4701 9.27699 19.3209 8.86932C19.1751 8.45833 18.9497 8.12855 18.6448 7.87997C18.3399 7.63139 17.9554 7.5071 17.4914 7.5071C17.0241 7.5071 16.6363 7.63139 16.328 7.87997C16.0231 8.12855 15.7961 8.45833 15.6469 8.86932C15.5011 9.27699 15.4282 9.72443 15.4282 10.2116C15.4282 10.7022 15.5011 11.1513 15.6469 11.5589C15.7961 11.9666 16.0231 12.2931 16.328 12.5384C16.6363 12.7836 17.0241 12.9062 17.4914 12.9062ZM22.7053 14V6.36364H24.1421V7.5767H24.2217C24.3609 7.16572 24.6061 6.84257 24.9575 6.60724C25.3121 6.36861 25.7132 6.24929 26.1606 6.24929C26.2534 6.24929 26.3628 6.2526 26.4887 6.25923C26.618 6.26586 26.7191 6.27415 26.792 6.28409V7.70597C26.7323 7.68939 26.6263 7.67116 26.4738 7.65128C26.3213 7.62808 26.1689 7.61648 26.0164 7.61648C25.6651 7.61648 25.3519 7.69105 25.0768 7.8402C24.805 7.98603 24.5896 8.18987 24.4305 8.4517C24.2714 8.71023 24.1919 9.00521 24.1919 9.33665V14H22.7053ZM32.0942 6.36364V7.55682H27.923V6.36364H32.0942ZM29.0416 4.53409H30.5281V11.7578C30.5281 12.0462 30.5712 12.2633 30.6574 12.4091C30.7436 12.5516 30.8546 12.6494 30.9905 12.7024C31.1297 12.7521 31.2805 12.777 31.4429 12.777C31.5622 12.777 31.6666 12.7687 31.7561 12.7521C31.8456 12.7356 31.9152 12.7223 31.9649 12.7124L32.2334 13.9403C32.1472 13.9735 32.0246 14.0066 31.8655 14.0398C31.7064 14.0762 31.5075 14.0961 31.2689 14.0994C30.8778 14.1061 30.5132 14.0365 30.1752 13.8906C29.8371 13.7448 29.5637 13.5194 29.3548 13.2145C29.146 12.9096 29.0416 12.5268 29.0416 12.0661V4.53409Z" fill="#0065DE"/>
</svg>
