<svg width="18" height="16" viewBox="0 0 18 16" fill="none" xmlns="http://www.w3.org/2000/svg">
<path d="M17.25 8.74999L2.56054 8.75L8.03027 14.2197C8.32316 14.5126 8.32316 14.9874 8.03027 15.2803C7.73738 15.5732 7.26261 15.5732 6.96972 15.2803L0.219721 8.53027L0.167963 8.47363C-0.0723456 8.17905 -0.0548826 7.74433 0.219721 7.46972L6.96972 0.719721C7.26261 0.426828 7.73737 0.426828 8.03027 0.719721C8.32316 1.01261 8.32316 1.48738 8.03027 1.78027L2.56054 7.25L17.25 7.24999C17.6642 7.24999 18 7.58578 18 7.99999C18 8.41421 17.6642 8.74999 17.25 8.74999Z" fill="#101319"/>
</svg>
